<svg width="300" height="250" viewBox="0 0 300 250" fill="none" xmlns="http://www.w3.org/2000/svg" shape-rendering="geometricPrecision">
<path d="M275.5 68.09V63.67C275.501 61.8088 275.136 59.9656 274.424 58.2458C273.712 56.526 272.669 54.9634 271.353 53.6474C270.037 52.3313 268.474 51.2876 266.754 50.576C265.034 49.8643 263.191 49.4987 261.33 49.5H117.85L53.15 81.17L25.5 180.91V185.33C25.4987 187.191 25.8643 189.034 26.576 190.754C27.2876 192.474 28.3313 194.037 29.6474 195.353C30.9634 196.669 32.526 197.712 34.2458 198.424C35.9656 199.136 37.8088 199.501 39.67 199.5H183.15L245.15 165.5L275.5 68.09Z" fill="#0F0F0F"/>
<path d="M275.5 68.0901L183.15 199.5H261.33C263.192 199.501 265.035 199.136 266.755 198.424C268.474 197.713 270.037 196.669 271.353 195.353C272.669 194.037 273.713 192.474 274.424 190.754C275.136 189.034 275.502 187.191 275.5 185.33V68.0901Z" fill="#383838"/>
<path d="M25.5 180.91L117.85 49.5H39.67C37.8088 49.4987 35.9656 49.8643 34.2458 50.576C32.526 51.2876 30.9634 52.3313 29.6474 53.6474C28.3313 54.9634 27.2876 56.526 26.576 58.2458C25.8643 59.9656 25.4987 61.8088 25.5 63.67V180.91Z" fill="#383838"/>
<path d="M125.2 175.5L110.57 165.5L65.4896 229.71C65.1534 230.186 64.9144 230.723 64.7863 231.292C64.6581 231.86 64.6433 232.448 64.7427 233.022C64.8421 233.596 65.0537 234.145 65.3655 234.637C65.6773 235.129 66.083 235.555 66.5596 235.89L73.6596 240.89C74.6223 241.564 75.8124 241.829 76.9702 241.629C78.1279 241.428 79.1594 240.778 79.8396 239.82L125.2 175.5Z" fill="#515151"/>
<path d="M150 64.6699C138.068 64.6699 126.404 68.2082 116.482 74.8374C106.561 81.4665 98.8285 90.8888 94.2623 101.913C89.6961 112.937 88.5013 125.067 90.8292 136.77C93.157 148.473 98.9029 159.222 107.34 167.66C115.778 176.097 126.527 181.843 138.23 184.171C149.933 186.499 162.063 185.304 173.087 180.738C184.111 176.171 193.533 168.439 200.163 158.517C206.792 148.596 210.33 136.932 210.33 125C210.33 108.999 203.974 93.6542 192.66 82.3402C181.346 71.0261 166 64.6699 150 64.6699ZM150 176C139.913 176 130.053 173.009 121.666 167.405C113.279 161.801 106.742 153.836 102.882 144.517C99.022 135.198 98.0121 124.943 99.9799 115.05C101.948 105.157 106.805 96.07 113.938 88.9375C121.07 81.805 130.157 76.9477 140.05 74.9799C149.943 73.012 160.198 74.022 169.517 77.8821C178.836 81.7421 186.801 88.2789 192.405 96.6658C198.009 105.053 201 114.913 201 125C201 138.526 195.627 151.498 186.062 161.062C176.498 170.627 163.526 176 150 176Z" fill="#D2D2D2"/>
<path d="M131.91 86.1601L131.07 84.3501C136.995 81.5788 143.459 80.1514 150 80.1701V82.1701C143.75 82.1531 137.573 83.5155 131.91 86.1601Z" fill="white"/>
<path d="M107.17 125H105.17C105.146 118.057 106.746 111.205 109.842 104.991C112.938 98.777 117.444 93.3727 123 89.21L124.21 90.81C118.9 94.7854 114.594 99.9476 111.635 105.884C108.677 111.821 107.148 118.367 107.17 125Z" fill="white"/>
<path d="M77.9398 211.99L76.7598 213.66L93.2298 220.83L94.4098 219.16L77.9398 211.99Z" fill="#8B8C8E"/>
<path d="M82.85 235.55L70.67 222.32L69.5 224L81.67 237.22L82.85 235.55Z" fill="#8B8C8E"/>
<path d="M84.4404 202.73L96.7204 215.89L97.9004 214.22L85.6104 201.06L84.4404 202.73Z" fill="#8B8C8E"/>
<path d="M114.4 190.82L94.1696 188.87L92.8496 190.75L113.07 192.7L114.4 190.82Z" fill="#8B8C8E"/>
<path d="M102.1 177.59L117.67 186.19L118.83 184.54L103.25 175.94L102.1 177.59Z" fill="#8B8C8E"/>
<path d="M89.5799 195.4L88.3799 197.11L105.89 202.88L107.09 201.18L89.5799 195.4Z" fill="#8B8C8E"/>
<path d="M114.88 117.3L150.5 153.78V117.3H114.88Z" fill="#8B8C8E"/>
<path d="M150.5 117.3V153.78L186.12 117.3H150.5Z" fill="#FF7348"/>
<path d="M134.13 117.3H166.87L150.5 153.78L134.13 117.3Z" fill="white"/>
<path d="M186.12 117.3H114.88L123.92 102.78H177.08L186.12 117.3Z" fill="#D2D2D2"/>
<path d="M123.92 102.78L134.13 117.3L150.5 102.78H123.92Z" fill="white"/>
<path d="M150.5 102.78L166.87 117.3L177.08 102.78H150.5Z" fill="white"/>
<path d="M134.13 117.3H166.87L150.5 102.78L134.13 117.3Z" fill="#FF7348"/>
<path d="M221 191C221.837 189.812 222.946 188.842 224.236 188.172C225.525 187.502 226.957 187.151 228.41 187.15C230.176 187.141 231.915 186.709 233.48 185.892C235.046 185.074 236.393 183.894 237.41 182.45L253.47 159.6C254.296 158.431 255.385 157.473 256.65 156.802C257.915 156.132 259.319 155.768 260.75 155.74H261C262.747 155.712 264.463 155.271 266.008 154.455C267.553 153.638 268.883 152.468 269.89 151.04L275.49 143.04V139.56L268.25 149.86C267.427 151.031 266.338 151.991 265.073 152.66C263.808 153.329 262.402 153.689 260.97 153.71H260.78C259.034 153.743 257.32 154.186 255.778 155.004C254.235 155.823 252.907 156.993 251.9 158.42L235.84 181.27C235.002 182.459 233.89 183.429 232.599 184.099C231.308 184.769 229.875 185.119 228.42 185.12C226.646 185.121 224.897 185.549 223.322 186.367C221.748 187.185 220.392 188.369 219.37 189.82L212.57 199.5H215L221 191Z" fill="#0F0F0F"/>
<path d="M241.93 199C242.765 197.811 243.875 196.84 245.165 196.17C246.454 195.5 247.886 195.15 249.34 195.15C251.106 195.141 252.844 194.709 254.41 193.892C255.975 193.074 257.323 191.894 258.34 190.45L274.4 167.6C274.709 167.16 275.061 166.751 275.45 166.38V163.77C274.403 164.499 273.492 165.406 272.76 166.45L256.7 189.3C255.864 190.489 254.754 191.46 253.465 192.13C252.175 192.8 250.743 193.15 249.29 193.15C247.515 193.151 245.767 193.579 244.192 194.397C242.617 195.215 241.261 196.399 240.24 197.85L239.06 199.53H241.5L241.93 199Z" fill="#0F0F0F"/>
<path d="M231.47 195C232.308 193.811 233.42 192.841 234.711 192.171C236.002 191.501 237.435 191.151 238.89 191.15C240.664 191.148 242.412 190.72 243.987 189.902C245.562 189.084 246.917 187.9 247.94 186.45L264 163.57C264.822 162.4 265.909 161.441 267.173 160.77C268.436 160.099 269.84 159.736 271.27 159.71H271.47C272.844 159.682 274.201 159.397 275.47 158.87V156.67C274.214 157.317 272.823 157.66 271.41 157.67H271.21C269.464 157.703 267.75 158.146 266.207 158.964C264.664 159.783 263.336 160.953 262.33 162.38L246.3 185.27C245.463 186.458 244.354 187.428 243.064 188.098C241.775 188.768 240.343 189.119 238.89 189.12C237.123 189.128 235.385 189.56 233.819 190.377C232.253 191.195 230.906 192.375 229.89 193.82L225.89 199.5H228.34L231.47 195Z" fill="#0F0F0F"/>
<path d="M200.11 183C200.948 181.811 202.06 180.841 203.351 180.172C204.642 179.502 206.075 179.151 207.53 179.15C209.304 179.148 211.052 178.72 212.627 177.902C214.202 177.084 215.557 175.9 216.58 174.45L232.64 151.6C233.462 150.43 234.55 149.471 235.813 148.8C237.076 148.129 238.48 147.766 239.91 147.74H240.11C241.861 147.709 243.579 147.263 245.125 146.439C246.67 145.615 247.998 144.436 249 143L265.15 120C265.966 118.843 267.04 117.892 268.289 117.223C269.537 116.555 270.924 116.187 272.34 116.15H272.66C273.627 116.126 274.586 115.967 275.51 115.68V113.58C274.582 113.93 273.601 114.123 272.61 114.15H272.28C270.554 114.197 268.864 114.646 267.343 115.462C265.822 116.278 264.513 117.439 263.52 118.85L247.36 141.85C246.538 143.02 245.451 143.979 244.187 144.648C242.923 145.317 241.519 145.678 240.09 145.7H239.89C238.144 145.733 236.43 146.176 234.887 146.994C233.344 147.813 232.016 148.983 231.01 150.41L214.95 173.26C214.113 174.448 213.004 175.419 211.714 176.089C210.425 176.759 208.993 177.109 207.54 177.11C205.765 177.111 204.017 177.539 202.442 178.357C200.867 179.175 199.512 180.359 198.49 181.81L186.05 199.5H188.5L200.11 183Z" fill="#0F0F0F"/>
<path d="M251.42 108.18H251.75C253.475 108.133 255.166 107.684 256.687 106.868C258.207 106.052 259.517 104.891 260.51 103.48L275.51 82.1599V78.6699L258.89 102.32C258.074 103.477 256.999 104.427 255.75 105.096C254.502 105.764 253.115 106.132 251.7 106.17H251.38C250.36 106.201 249.35 106.376 248.38 106.69L245.84 110.3C247.407 108.984 249.374 108.237 251.42 108.18Z" fill="#0F0F0F"/>
<path d="M259.79 199.12C261.556 199.111 263.294 198.679 264.86 197.862C266.426 197.044 267.773 195.864 268.79 194.42L275.5 185V181.52L267.21 193.32C266.371 194.509 265.26 195.479 263.969 196.149C262.678 196.818 261.245 197.169 259.79 197.17C257.331 197.17 254.941 197.99 253 199.5H257.28C258.095 199.255 258.94 199.127 259.79 199.12Z" fill="#0F0F0F"/>
<path d="M206.12 170.42L222.18 147.57C223.006 146.401 224.095 145.443 225.36 144.772C226.624 144.102 228.029 143.738 229.46 143.71H229.65C231.397 143.683 233.114 143.244 234.659 142.427C236.204 141.61 237.534 140.439 238.54 139.01L254.69 116.01C255.504 114.853 256.577 113.903 257.824 113.235C259.07 112.566 260.456 112.198 261.87 112.16H262.2C263.926 112.112 265.618 111.663 267.14 110.847C268.663 110.031 269.974 108.871 270.97 107.46L275.5 101V97.54L269.33 106.32C268.516 107.477 267.442 108.427 266.196 109.096C264.949 109.764 263.564 110.132 262.15 110.17H261.82C260.093 110.218 258.402 110.668 256.879 111.483C255.357 112.299 254.046 113.459 253.05 114.87L236.9 137.87C236.077 139.041 234.988 140.001 233.722 140.67C232.457 141.339 231.051 141.699 229.62 141.72H229.43C227.684 141.753 225.97 142.196 224.427 143.014C222.884 143.833 221.556 145.003 220.55 146.43L204.49 169.28C204.263 169.593 204.019 169.894 203.76 170.18L200.76 174.49C202.928 173.727 204.802 172.303 206.12 170.42Z" fill="#0F0F0F"/>
<path d="M210.57 187C211.406 185.811 212.515 184.84 213.805 184.17C215.095 183.5 216.527 183.15 217.98 183.15C219.755 183.149 221.503 182.721 223.078 181.903C224.653 181.085 226.008 179.901 227.03 178.45L243.09 155.6C243.914 154.429 245.003 153.469 246.268 152.799C247.533 152.128 248.939 151.765 250.37 151.74H250.56C252.306 151.712 254.02 151.271 255.563 150.454C257.107 149.638 258.435 148.468 259.44 147.04L275.5 124.19V121.19C274.925 121.712 274.409 122.296 273.96 122.93L257.81 145.93C256.985 147.099 255.896 148.058 254.631 148.727C253.366 149.396 251.961 149.757 250.53 149.78H250.34C248.592 149.811 246.877 150.254 245.332 151.072C243.787 151.89 242.457 153.061 241.45 154.49L225.39 177.34C224.554 178.529 223.445 179.499 222.155 180.17C220.865 180.84 219.433 181.19 217.98 181.19C216.214 181.199 214.476 181.631 212.91 182.448C211.345 183.266 209.997 184.446 208.98 185.89L199.37 199.57H201.81L210.57 187Z" fill="#0F0F0F"/>
<path d="M59.06 49.79C58.2436 50.9437 57.1697 51.8913 55.9234 52.5578C54.6772 53.2244 53.2928 53.5915 51.88 53.63H51.55C49.8239 53.6801 48.1331 54.1308 46.6111 54.9465C45.0891 55.7621 43.7775 56.9205 42.78 58.33L26.63 81.33C26.2969 81.7993 25.9184 82.2347 25.5 82.63V85.22C26.5822 84.4827 27.5209 83.5541 28.27 82.48L44.42 59.48C45.2342 58.3234 46.3074 57.3729 47.554 56.7045C48.8005 56.0361 50.186 55.6681 51.6 55.63H51.93C53.6557 55.5834 55.3468 55.1352 56.8691 54.3211C58.3914 53.507 59.7031 52.3494 60.7 50.94L61.7 49.5H59.26L59.06 49.79Z" fill="#0F0F0F"/>
<path d="M69.5202 53.79C68.7017 54.9439 67.626 55.8915 66.3781 56.558C65.1302 57.2244 63.7444 57.5914 62.3302 57.63H62.0002C60.2737 57.6778 58.582 58.1275 57.0597 58.9433C55.5373 59.7592 54.2261 60.9188 53.2302 62.33L37.0702 85.33C36.2482 86.4999 35.161 87.4586 33.8974 88.1277C32.6338 88.7969 31.2299 89.1574 29.8002 89.18H29.6002C28.186 89.2029 26.7899 89.5018 25.4902 90.06V92.26C26.7634 91.5724 28.1835 91.202 29.6302 91.18H29.8302C31.576 91.1517 33.2904 90.7111 34.8336 89.8944C36.3768 89.0776 37.7051 87.9077 38.7102 86.48L54.8602 63.48C55.6766 62.3232 56.7516 61.3728 57.9998 60.7044C59.248 60.036 60.6349 59.6682 62.0502 59.63H62.3702C64.0961 59.5841 65.7874 59.1363 67.3099 58.3222C68.8323 57.508 70.1439 56.3499 71.1402 54.94L75.0002 49.5H72.5302L69.5202 53.79Z" fill="#0F0F0F"/>
<path d="M41.43 49.63H41.1C39.3736 49.6786 37.6822 50.1286 36.16 50.9444C34.6377 51.7602 33.3264 52.9194 32.33 54.33L25.5 64.06V67.54L34 55.49C34.8137 54.3328 35.8867 53.382 37.1334 52.7135C38.3801 52.045 39.7659 51.6774 41.18 51.64H41.51C43.7428 51.5717 45.9018 50.8253 47.7 49.5H42.7C42.2803 49.5733 41.8559 49.6168 41.43 49.63Z" fill="#0F0F0F"/>
<path d="M49.5197 140.58C47.7453 140.582 45.9972 141.01 44.4225 141.828C42.8477 142.646 41.4922 143.83 40.4697 145.28L25.4697 166.59V170.07L42.0797 146.43C42.9167 145.242 44.0265 144.273 45.3159 143.603C46.6053 142.933 48.0367 142.582 49.4897 142.58C50.6032 142.575 51.7093 142.399 52.7697 142.06L55.2997 138.46C53.6822 139.824 51.6357 140.575 49.5197 140.58Z" fill="#0F0F0F"/>
<path d="M31.6598 142.43C32.4956 141.241 33.6051 140.27 34.8948 139.6C36.1845 138.93 37.6164 138.58 39.0698 138.58C40.836 138.571 42.5743 138.139 44.1398 137.322C45.7054 136.504 47.0528 135.324 48.0698 133.88L64.1798 111C65.0034 109.829 66.0924 108.87 67.3577 108.201C68.6229 107.532 70.0286 107.172 71.4598 107.15H71.6498C73.3956 107.122 75.11 106.681 76.6531 105.864C78.1963 105.048 79.5247 103.878 80.5298 102.45L96.6898 79.45C96.9033 79.1414 97.1372 78.8474 97.3898 78.57L100.39 74.24C98.2144 74.9994 96.3302 76.4187 94.9998 78.3L78.8498 101.3C78.0251 102.469 76.9358 103.428 75.6708 104.097C74.4058 104.766 73.0007 105.127 71.5698 105.15H71.3798C69.6328 105.179 67.9173 105.62 66.3726 106.437C64.8279 107.253 63.4977 108.423 62.4898 109.85L46.4798 132.73C45.644 133.919 44.5345 134.89 43.2448 135.56C41.9551 136.23 40.5232 136.58 39.0698 136.58C37.3036 136.589 35.5653 137.021 33.9998 137.838C32.4342 138.656 31.0868 139.836 30.0698 141.28L25.5498 147.72V151.2L31.6598 142.43Z" fill="#0F0F0F"/>
<path d="M80 57.79C79.1836 58.9436 78.1097 59.8913 76.8634 60.5578C75.6172 61.2243 74.2328 61.5914 72.82 61.63H72.49C70.7636 61.6785 69.0722 62.1285 67.55 62.9443C66.0277 63.7602 64.7164 64.9193 63.72 66.33L47.57 89.33C46.7464 90.5006 45.6574 91.4597 44.3921 92.1289C43.1269 92.798 41.7212 93.1582 40.29 93.18H40.1C38.3542 93.2083 36.6398 93.6488 35.0967 94.4656C33.5535 95.2824 32.2251 96.4523 31.22 97.88L25.5 106V109.48L32.82 99C33.6447 97.8305 34.734 96.8723 35.999 96.2032C37.264 95.5342 38.6691 95.1734 40.1 95.15H40.29C42.0358 95.1216 43.7502 94.6811 45.2933 93.8643C46.8365 93.0476 48.1649 91.8776 49.17 90.45L65.33 67.45C66.1437 66.2928 67.2167 65.3419 68.4634 64.6734C69.7101 64.0049 71.0959 63.6373 72.51 63.6H72.84C74.5641 63.5526 76.2535 63.104 77.7741 62.2899C79.2947 61.4758 80.6046 60.3186 81.6 58.91L88.24 49.47H85.79L80 57.79Z" fill="#0F0F0F"/>
<path d="M100.87 65.79C100.054 66.9442 98.9801 67.8923 97.7337 68.5589C96.4873 69.2255 95.1027 69.5922 93.6897 69.63H93.3697C91.6432 69.6778 89.9515 70.1275 88.4292 70.9433C86.9068 71.7592 85.5956 72.9188 84.5997 74.33L68.4397 97.33C67.6177 98.4999 66.5304 99.4586 65.2669 100.128C64.0033 100.797 62.5993 101.157 61.1697 101.18H60.9997C59.2539 101.208 57.5396 101.649 55.9964 102.466C54.4532 103.282 53.1249 104.452 52.1197 105.88L35.9997 128.73C35.164 129.919 34.0544 130.89 32.7647 131.56C31.4751 132.23 30.0431 132.58 28.5897 132.58C27.5324 132.584 26.4813 132.742 25.4697 133.05V135.14C26.4691 134.773 27.525 134.583 28.5897 134.58C30.3643 134.579 32.1127 134.151 33.6876 133.333C35.2625 132.515 36.6179 131.331 37.6397 129.88L53.7297 107C54.555 105.836 55.6437 104.883 56.907 104.219C58.1704 103.555 59.5727 103.199 60.9997 103.18H61.1997C62.9455 103.152 64.6599 102.711 66.2031 101.894C67.7463 101.078 69.0746 99.9077 70.0797 98.48L86.2297 75.48C87.0461 74.3232 88.1211 73.3728 89.3693 72.7044C90.6174 72.036 92.0044 71.6681 93.4197 71.63H93.7397C95.4656 71.5841 97.1569 71.1363 98.6794 70.3222C100.202 69.508 101.513 68.3499 102.51 66.94L114.76 49.5H112.32L100.87 65.79Z" fill="#0F0F0F"/>
<path d="M90.42 61.79C89.6036 62.9437 88.5297 63.8913 87.2834 64.5578C86.0372 65.2244 84.6528 65.5915 83.24 65.63H82.91C81.1839 65.6801 79.4931 66.1308 77.9711 66.9465C76.4491 67.7621 75.1375 68.9205 74.14 70.33L58 93.32C57.178 94.4899 56.0907 95.4486 54.8272 96.1177C53.5636 96.7868 52.1596 97.1474 50.73 97.17H50.53C48.7842 97.1983 47.0698 97.6389 45.5267 98.4556C43.9835 99.2724 42.6551 100.442 41.65 101.87L25.58 124.73C25.548 124.759 25.521 124.792 25.5 124.83V127.83C26.1473 127.264 26.7247 126.623 27.22 125.92L43.28 103C44.102 101.83 45.1893 100.871 46.4528 100.202C47.7164 99.5331 49.1204 99.1726 50.55 99.15H50.75C52.4958 99.1217 54.2102 98.6811 55.7533 97.8644C57.2965 97.0476 58.6249 95.8777 59.63 94.45L75.78 71.45C76.6025 70.2954 77.6839 69.3494 78.9377 68.6878C80.1914 68.0262 81.5827 67.6674 83 67.64H83.33C85.0554 67.5918 86.7459 67.143 88.268 66.329C89.79 65.5151 91.102 64.3582 92.1 62.95L101.5 49.5H99.06L90.42 61.79Z" fill="#0F0F0F"/>
</svg>
